<?xml version="1.0" encoding="UTF-8"?>
<!-- Generated by Pixelmator Pro 3.6.14 -->
<svg width="1050" height="116" viewBox="0 0 1050 116" xmlns="http://www.w3.org/2000/svg">
    <g id="Group">
        <clipPath id="clipPath1">
            <path d="M -0.800003 -1.5 L 1050.90007 -1.5 L 1050.90007 116 L -0.800003 116 Z"/>
        </clipPath>
        <g id="g1" clip-path="url(#clipPath1)">
            <g id="g2">
                <clipPath id="clipPath2">
                    <path d="M -0.800003 -1.5 L 1050.90007 -1.5 L 1050.90007 116 L -0.800003 116 Z"/>
                </clipPath>
                <g id="g3" clip-path="url(#clipPath2)">
                    <path id="Path" fill="#1f1f1d" stroke="none" d="M 55 14.799988 C 71.399994 14.799988 84.699997 24.400024 86.699997 37.5 L 104.300003 37.5 C 101.199997 15.5 80.800003 0 55.100006 0 C 26.399994 0 0 19 0 57.799988 C 0 96.5 26.100006 115.599976 55.100006 115.599976 C 81.199997 115.599976 101.399994 100.099976 103.800003 78 L 87 78 C 85.199997 91.099976 71.800003 100.700012 55 100.700012 C 33 100.700012 17.199997 85.799988 17.199997 57.799988 C 17.300003 29.799988 33 14.799988 55 14.799988 Z"/>
                    <path id="path1" fill="#1f1f1d" stroke="none" d="M 131.899994 1.299988 L 116.199997 1.299988 L 116.199997 114.200012 L 131.899994 114.200012 L 131.899994 1.299988 Z"/>
                    <path id="path2" fill="#1f1f1d" stroke="none" d="M 185.600006 31.599976 C 161.200012 31.599976 143.600006 49.200012 143.600006 73.599976 C 143.600006 98 161.200012 115.599976 185.600006 115.599976 C 210 115.599976 227.399994 98 227.399994 73.599976 C 227.399994 49.299988 209.899994 31.599976 185.600006 31.599976 Z M 185.600006 101.700012 C 170.100006 101.700012 159.600006 90 159.600006 73.5 C 159.600006 56.900024 170.100006 45.299988 185.600006 45.299988 C 200.799988 45.299988 211.399994 57 211.399994 73.5 C 211.399994 90.200012 201 101.700012 185.600006 101.700012 Z"/>
                    <path id="path3" fill="#1f1f1d" stroke="none" d="M 296 77.700012 C 296 95.200012 285.100006 101.799988 275.200012 101.799988 C 265.5 101.799988 254.600006 95.200012 254.600006 77.700012 L 254.600006 32.900024 L 238.5 32.900024 L 238.5 77.299988 C 238.5 103.099976 256 115.5 275.299988 115.5 C 294.899994 115.5 312.200012 103.099976 312.200012 77.299988 L 312.200012 32.900024 L 296 32.900024 L 296 77.700012 Z"/>
                    <path id="path4" fill="#1f1f1d" stroke="none" d="M 387.799988 44.799988 C 383 36.900024 373.200012 31.5 362 31.5 C 337.200012 31.5 323.200012 49.299988 323.200012 73.5 C 323.200012 97.700012 337.200012 115.5 362.200012 115.5 C 373 115.5 383 110.099976 387.899994 102.099976 L 387.899994 114.200012 L 403.400024 114.200012 L 403.400024 1.299988 L 387.700012 1.299988 L 387.700012 44.799988 L 387.799988 44.799988 Z M 363.899994 101.700012 C 349 101.700012 339.100006 90.299988 339.100006 73.5 C 339.100006 56.599976 349 45.299988 363.899994 45.299988 C 380.5 45.299988 388.899994 58.599976 388.899994 73.5 C 388.899994 88.599976 380.5 101.700012 363.899994 101.700012 Z"/>
                    <path id="path5" fill="#1f1f1d" stroke="none" d="M 510.200012 1.299988 L 489 1.299988 L 439.5 53.099976 L 439.5 1.299988 L 422.599976 1.299988 L 422.599976 114.200012 L 439.5 114.200012 L 439.5 75.799988 L 455.799988 58.5 L 494.299988 114.200012 L 514.799988 114.200012 L 467.299988 46.400024 L 510.200012 1.299988 Z"/>
                    <path id="path6" fill="#1f1f1d" stroke="none" d="M 539.200012 1.299988 L 521.700012 1.299988 L 521.700012 18.799988 L 539.200012 18.799988 L 539.200012 1.299988 Z"/>
                    <path id="path7" fill="#1f1f1d" stroke="none" d="M 538.400024 32.799988 L 522.700012 32.799988 L 522.700012 114.099976 L 538.400024 114.099976 L 538.400024 32.799988 Z"/>
                    <path id="path8" fill="#1f1f1d" stroke="none" d="M 582.400024 7.400024 L 566.700012 7.400024 L 566.700012 32.799988 L 550.099976 32.799988 L 550.099976 46.400024 L 566.700012 46.400024 L 566.700012 87.5 C 566.700012 104.099976 577.200012 114.099976 593.599976 114.099976 L 606.299988 114.099976 L 606.299988 100.5 L 594.799988 100.5 C 586.900024 100.5 582.299988 95.700012 582.299988 86.900024 L 582.299988 46.400024 L 606.400024 46.400024 L 606.400024 32.799988 L 582.299988 32.799988 L 582.299988 7.400024 L 582.400024 7.400024 Z"/>
                    <path id="path9" fill="#1f1f1d" stroke="none" d="M 651.700012 45.400024 C 662.599976 45.400024 672 52.099976 673.5 61.400024 L 689.200012 61.400024 C 687 43 670.5 31.700012 651.400024 31.700012 C 625.700012 31.700012 611.099976 51.299988 611.099976 73.700012 C 611.099976 96.099976 625.700012 115.700012 651.400024 115.700012 C 672 115.700012 686.5 104 689.200012 87 L 673.700012 87 C 671.200012 96.299988 662.900024 101.900024 651.700012 101.900024 C 635.599976 101.900024 627.299988 89.400024 627.299988 73.700012 C 627.299988 57.900024 635.400024 45.400024 651.700012 45.400024 Z"/>
                    <path id="path10" fill="#1f1f1d" stroke="none" d="M 741.200012 31.599976 C 729.099976 31.599976 719.400024 37.099976 715.099976 47.299988 L 715.099976 1.299988 L 699.400024 1.299988 L 699.400024 114.200012 L 715 114.200012 L 715 70.099976 C 715 55.900024 724 45.599976 736.799988 45.599976 C 748.299988 45.599976 755.799988 54.299988 755.799988 67.299988 L 755.799988 114.200012 L 771.5 114.200012 L 771.5 64.200012 C 771.5 44.799988 759.599976 31.599976 741.200012 31.599976 Z"/>
                    <path id="path11" fill="#1f1f1d" stroke="none" d="M 823.900024 102.200012 C 809.700012 102.200012 799.700012 91.700012 798.5 76.400024 L 860.5 76.400024 C 860.599976 74.900024 860.799988 72.400024 860.799988 70.299988 C 860.799988 49.700012 847.400024 31.799988 822.299988 31.799988 C 797.299988 31.799988 783.200012 50.5 783.200012 73.299988 C 783.200012 95.900024 798.900024 115.700012 824 115.700012 C 844 115.700012 858.700012 104.599976 861.5 87.900024 L 845.799988 87.900024 C 843.700012 96.900024 835.900024 102.200012 823.900024 102.200012 Z M 822.299988 44.200012 C 835.700012 44.200012 844.099976 52.400024 845 64.799988 L 798.799988 64.799988 C 801.400024 51.200012 809.599976 44.200012 822.299988 44.200012 Z"/>
                    <path id="path12" fill="#1f1f1d" stroke="none" d="M 910 31.599976 C 890.400024 31.599976 873.099976 44 873.099976 69.799988 L 873.099976 114.200012 L 889.200012 114.200012 L 889.200012 69.400024 C 889.200012 51.900024 900.099976 45.299988 910 45.299988 C 919.699951 45.299988 930.599976 51.900024 930.599976 69.400024 L 930.599976 114.200012 L 946.699951 114.200012 L 946.699951 69.799988 C 946.800049 44 929.300049 31.599976 910 31.599976 Z"/>
                    <path id="path13" fill="#1f1f1d" stroke="none" d="M 974.099976 54.5 C 974.099976 48.200012 979.800049 44 988.099976 44 C 995.099976 44 1004.099976 47.700012 1005.099976 57 L 1019.699951 57 C 1019 41.599976 1006.300049 31.5 987.900024 31.5 C 971 31.5 959.099976 40.900024 959.099976 55 C 959.099976 89.700012 1005.300049 69.799988 1005.300049 91.5 C 1005.300049 97.5 999.300049 102.400024 989.900024 102.400024 C 979.400024 102.400024 972.699951 97 971.699951 87.799988 L 957.099976 87.799988 C 958.300049 104.799988 971 115.599976 990 115.599976 C 1008.400024 115.599976 1020.5 106.200012 1020.5 91.200012 C 1020.400024 54 974.099976 74.700012 974.099976 54.5 Z"/>
                    <path id="path14" fill="#1f1f1d" stroke="none" d="M 1041.5 12.700012 C 1041.5 9.599976 1039.400024 7.5 1035.800049 7.5 L 1028.900024 7.5 L 1028.900024 25.099976 L 1031.400024 25.099976 L 1031.400024 18.200012 L 1035.900024 18.200012 C 1037.400024 18.200012 1038.400024 19.200012 1038.599976 20.900024 L 1038.900024 25.099976 L 1041.400024 25.099976 L 1041.099976 20.599976 C 1041 18.799988 1040.199951 17.5 1038.900024 16.700012 C 1040.400024 16 1041.5 14.599976 1041.5 12.700012 Z M 1035.699951 15.799988 L 1031.400024 15.799988 L 1031.400024 9.700012 L 1035.699951 9.700012 C 1037.900024 9.700012 1038.800049 11 1038.800049 12.700012 C 1038.800049 14.299988 1037.900024 15.799988 1035.699951 15.799988 Z"/>
                    <path id="path15" fill="#1f1f1d" stroke="none" d="M 1034.699951 1.299988 C 1026.199951 1.299988 1019.599976 7.900024 1019.599976 16.400024 C 1019.599976 24.900024 1026.199951 31.5 1034.699951 31.5 C 1043.199951 31.5 1049.800049 24.900024 1049.800049 16.400024 C 1049.800049 7.900024 1043.300049 1.299988 1034.699951 1.299988 Z M 1034.699951 29.200012 C 1027.5 29.200012 1022 23.5 1022 16.200012 C 1022 8.900024 1027.5 3.200012 1034.699951 3.200012 C 1041.900024 3.200012 1047.400024 8.900024 1047.400024 16.200012 C 1047.400024 23.700012 1041.900024 29.200012 1034.699951 29.200012 Z"/>
                </g>
            </g>
        </g>
    </g>
</svg>
