<?xml version="1.0" encoding="utf-8"?>
<!-- Generator: Adobe Illustrator 25.4.1, SVG Export Plug-In . SVG Version: 6.00 Build 0)  -->
<svg version="1.0" id="katman_1" xmlns="http://www.w3.org/2000/svg" xmlns:xlink="http://www.w3.org/1999/xlink" x="0px" y="0px"
	 viewBox="0 0 1280 1024" style="enable-background:new 0 0 1280 1024;" xml:space="preserve">
<style type="text/css">
	.st0{clip-path:url(#SVGID_00000034796769574763834320000016136532680541473188_);}
	.st1{clip-path:url(#SVGID_00000142880166460290209170000001484822948331274893_);}
	.st2{fill:#1F1F1D;}
</style>
<g>
	<defs>
		<rect id="SVGID_1_" x="114.2" y="453.5" width="1051.7" height="117.5"/>
	</defs>
	<clipPath id="SVGID_00000111193495970084812200000011020189637352028800_">
		<use xlink:href="#SVGID_1_"  style="overflow:visible;"/>
	</clipPath>
	<g style="clip-path:url(#SVGID_00000111193495970084812200000011020189637352028800_);">
		<g>
			<defs>
				<rect id="SVGID_00000085952376215099020510000008874203116793597849_" x="114.2" y="453.5" width="1051.7" height="117.5"/>
			</defs>
			<clipPath id="SVGID_00000025437379521227583610000014422121292339285435_">
				<use xlink:href="#SVGID_00000085952376215099020510000008874203116793597849_"  style="overflow:visible;"/>
			</clipPath>
			<g style="clip-path:url(#SVGID_00000025437379521227583610000014422121292339285435_);">
				<path class="st2" d="M170,469.8c16.4,0,29.7,9.6,31.7,22.7h17.6c-3.1-22-23.5-37.5-49.2-37.5c-28.7,0-55.1,19-55.1,57.8
					c0,38.7,26.1,57.8,55.1,57.8c26.1,0,46.3-15.5,48.7-37.6H202c-1.8,13.1-15.2,22.7-32,22.7c-22,0-37.8-14.9-37.8-42.9
					C132.3,484.8,148,469.8,170,469.8z"/>
				<path class="st2" d="M246.9,456.3h-15.7v112.9h15.7V456.3z"/>
				<path class="st2" d="M300.6,486.6c-24.4,0-42,17.6-42,42c0,24.4,17.6,42,42,42c24.4,0,41.8-17.6,41.8-42
					C342.4,504.3,324.9,486.6,300.6,486.6z M300.6,556.7c-15.5,0-26-11.7-26-28.2c0-16.6,10.5-28.2,26-28.2
					c15.2,0,25.8,11.7,25.8,28.2C326.4,545.2,316,556.7,300.6,556.7z"/>
				<path class="st2" d="M411,532.7c0,17.5-10.9,24.1-20.8,24.1c-9.7,0-20.6-6.6-20.6-24.1v-44.8h-16.1v44.4
					c0,25.8,17.5,38.2,36.8,38.2c19.6,0,36.9-12.4,36.9-38.2v-44.4H411V532.7z"/>
				<path class="st2" d="M502.8,499.8c-4.8-7.9-14.6-13.3-25.8-13.3c-24.8,0-38.8,17.8-38.8,42c0,24.2,14,42,39,42
					c10.8,0,20.8-5.4,25.7-13.4v12.1h15.5V456.3h-15.7v43.5H502.8z M478.9,556.7c-14.9,0-24.8-11.4-24.8-28.2
					c0-16.9,9.9-28.2,24.8-28.2c16.6,0,25,13.3,25,28.2C503.9,543.6,495.5,556.7,478.9,556.7z"/>
				<path class="st2" d="M625.2,456.3H604l-49.5,51.8v-51.8h-16.9v112.9h16.9v-38.4l16.3-17.3l38.5,55.7h20.5l-47.5-67.8
					L625.2,456.3z"/>
				<path class="st2" d="M654.2,456.3h-17.5v17.5h17.5V456.3z"/>
				<path class="st2" d="M653.4,487.8h-15.7v81.3h15.7V487.8z"/>
				<path class="st2" d="M697.4,462.4h-15.7v25.4h-16.6v13.6h16.6v41.1c0,16.6,10.5,26.6,26.9,26.6h12.7v-13.6h-11.5
					c-7.9,0-12.5-4.8-12.5-13.6v-40.5h24.1v-13.6h-24.1v-25.4H697.4z"/>
				<path class="st2" d="M766.7,500.4c10.9,0,20.3,6.7,21.8,16h15.7c-2.2-18.4-18.7-29.7-37.8-29.7c-25.7,0-40.3,19.6-40.3,42
					c0,22.4,14.6,42,40.3,42c20.6,0,35.1-11.7,37.8-28.7h-15.5c-2.5,9.3-10.8,14.9-22,14.9c-16.1,0-24.4-12.5-24.4-28.2
					C742.3,512.9,750.4,500.4,766.7,500.4z"/>
				<path class="st2" d="M856.2,486.6c-12.1,0-21.8,5.5-26.1,15.7v-46h-15.7v112.9H830v-44.1c0-14.2,9-24.5,21.8-24.5
					c11.5,0,19,8.7,19,21.7v46.9h15.7v-50C886.5,499.8,874.6,486.6,856.2,486.6z"/>
				<path class="st2" d="M938.9,557.2c-14.2,0-24.2-10.5-25.4-25.8h62c0.1-1.5,0.3-4,0.3-6.1c0-20.6-13.4-38.5-38.5-38.5
					c-25,0-39.1,18.7-39.1,41.5c0,22.6,15.7,42.4,40.8,42.4c20,0,34.7-11.1,37.5-27.8h-15.7C958.7,551.9,950.9,557.2,938.9,557.2z
					 M937.3,499.2c13.4,0,21.8,8.2,22.7,20.6h-46.2C916.4,506.2,924.6,499.2,937.3,499.2z"/>
				<path class="st2" d="M1025,486.6c-19.6,0-36.9,12.4-36.9,38.2v44.4h16.1v-44.8c0-17.5,10.9-24.1,20.8-24.1
					c9.7,0,20.6,6.6,20.6,24.1v44.8h16.1v-44.4C1061.8,499,1044.3,486.6,1025,486.6z"/>
				<path class="st2" d="M1089.1,509.5c0-6.3,5.7-10.5,14-10.5c7,0,16,3.7,17,13h14.6c-0.7-15.4-13.4-25.5-31.8-25.5
					c-16.9,0-28.8,9.4-28.8,23.5c0,34.7,46.2,14.8,46.2,36.5c0,6-6,10.9-15.4,10.9c-10.5,0-17.2-5.4-18.2-14.6h-14.6
					c1.2,17,13.9,27.8,32.9,27.8c18.4,0,30.5-9.4,30.5-24.4C1135.4,509,1089.1,529.7,1089.1,509.5z"/>
				<path class="st2" d="M1156.5,467.7c0-3.1-2.1-5.2-5.7-5.2h-6.9v17.6h2.5v-6.9h4.5c1.5,0,2.5,1,2.7,2.7l0.3,4.2h2.5l-0.3-4.5
					c-0.1-1.8-0.9-3.1-2.2-3.9C1155.4,471,1156.5,469.6,1156.5,467.7z M1150.7,470.8h-4.3v-6.1h4.3c2.2,0,3.1,1.3,3.1,3
					C1153.8,469.3,1152.9,470.8,1150.7,470.8z"/>
				<path class="st2" d="M1149.7,456.3c-8.5,0-15.1,6.6-15.1,15.1s6.6,15.1,15.1,15.1c8.5,0,15.1-6.6,15.1-15.1
					S1158.3,456.3,1149.7,456.3z M1149.7,484.2c-7.2,0-12.7-5.7-12.7-13c0-7.3,5.5-13,12.7-13c7.2,0,12.7,5.7,12.7,13
					C1162.4,478.7,1156.9,484.2,1149.7,484.2z"/>
			</g>
		</g>
	</g>
</g>
</svg>
